<svg t="1651322980182" class="icon" viewBox="0 0 1024 1024" version="1.1" xmlns="http://www.w3.org/2000/svg"
    p-id="10679" width="32" height="32">
    <path
        d="M862.65 786.58L540.52 947.64a63.732 63.732 0 0 1-57 0L161.39 786.58a63.735 63.735 0 0 1-34.97-51.23l-54.2-596.18c-3.39-37.32 25.99-69.5 63.47-69.5h752.66c37.48 0 66.86 32.18 63.47 69.5l-54.2 596.18a63.75 63.75 0 0 1-34.97 51.23z"
        fill="#4FAEC9" p-id="10680"></path>
    <path
        d="M512.02 962.3c-11.02 0-22.03-2.49-32.08-7.59L157.83 793.7c-22.37-11.2-37.09-32.74-39.33-57.63l-54.21-596.2c-1.8-20.01 4.92-39.99 18.45-54.83C96.31 70.23 115.6 61.7 135.71 61.7h752.66c20.1 0 39.4 8.53 52.96 23.37 13.51 14.81 20.23 34.82 18.36 54.8l-54.15 596.2c-2.24 24.89-16.93 46.43-39.33 57.63L544.07 954.71c-10.02 5.1-21.03 7.59-32.05 7.59zM135.71 77.63c-15.87 0-30.5 6.44-41.2 18.17-10.67 11.7-15.78 26.82-14.35 42.63l54.21 596.14c1.74 19.42 13.19 36.16 30.59 44.94l322.11 161.01c15.68 7.84 34.26 7.84 49.88 0l322.17-161.01c17.43-8.78 28.82-25.52 30.62-44.94l54.15-596.14c1.43-15.81-3.67-30.93-14.38-42.63-10.52-11.54-25.52-18.17-41.14-18.17H135.71z"
        fill="#353535" p-id="10681"></path>
    <path
        d="M512 748.07c-2.99 0-5.97-0.56-8.78-1.68l-182.48-72.01c-8.22-3.24-14-10.77-15-19.54l-8.65-76.12c-1.43-13.07 7.97-24.96 21.1-26.45 12.63-0.87 24.89 8.03 26.45 21.1l6.97 61.8L512 698.47l160.63-63.23 16.74-152.92H307.98c-12.26 0-22.53-9.27-23.77-21.47l-20.79-204.14c-0.68-6.72 1.49-13.44 6.04-18.42a23.81 23.81 0 0 1 17.74-7.9h449.66c13.19 0 23.9 10.7 23.9 23.9 0 13.19-10.7 23.9-23.9 23.9H313.65l15.93 156.34h386.49c6.78 0 13.26 2.86 17.8 7.97a23.763 23.763 0 0 1 5.97 18.55l-21.29 193.74c-1 8.84-6.78 16.37-15 19.6L520.76 746.4a23.755 23.755 0 0 1-8.76 1.67z"
        fill="#F3F7D2" p-id="10682"></path>
</svg>